<svg width="197px" height="197px" viewBox="-143.36 -143.36 1310.72 1310.72" class="icon" version="1.1" xmlns="http://www.w3.org/2000/svg" fill="#000000" stroke="#000000" stroke-width="0.01024" transform="matrix(1, 0, 0, 1, 0, 0)"><g id="SVGRepo_bgCarrier" stroke-width="0" transform="translate(30.720000000000027,30.720000000000027), scale(0.94)"><rect x="-143.36" y="-143.36" width="1310.72" height="1310.72" rx="655.36" fill="#ffffff" strokewidth="0"></rect></g><g id="SVGRepo_tracerCarrier" stroke-linecap="round" stroke-linejoin="round" stroke="#CCCCCC" stroke-width="18.432"></g><g id="SVGRepo_iconCarrier"><path d="M475.44 841.14c-161.32 0-292.57-131.25-292.57-292.57S314.12 256 475.44 256v-73.14c-201.66 0-365.71 164.05-365.71 365.71s164.05 365.71 365.71 365.71 365.71-164.05 365.71-365.71h-73.14c0 161.32-131.25 292.57-292.57 292.57z" fill="#0F1F3C"></path><path d="M585.15 109.71h-36.57v365.71h365.71v-36.57c0-181.47-147.66-329.14-329.14-329.14z m36.57 292.58V185.46c111.95 16.09 200.73 104.88 216.82 216.82H621.72z" fill="#0F1F3C"></path></g></svg>
